<svg id="Layer_1" data-name="Layer 1" xmlns="http://www.w3.org/2000/svg" viewBox="0 0 430.27 164.17"><defs><style>.cls-1{fill:#231f20;}.cls-2{fill:#00a7e1;}</style></defs><path class="cls-1" d="M402.12,226.4c23.55-17.72,25.59-40.74,25.59-40.74,24.24,18.2,14.6,46,14.6,46-12.32-16.86-40.19-5.3-40.19-5.3" transform="translate(-175.45 -185.66)"/><path class="cls-1" d="M443.93,236.3s16.33,49.08-79.44,81c-19.13,6.38-29.75,41.1,27.19,28.48C391.68,345.78,486.78,323.77,443.93,236.3ZM396.49,340c1.22-3.44,1.33-8.27,0-13.32-1.46-5.65-4.34-10.2-7.47-12.41.1,0,.18-.08.28-.1,4.29-1.11,9.28,3.8,11.14,11C402.25,332.05,400.47,338.53,396.49,340Z" transform="translate(-175.45 -185.66)"/><path class="cls-2" d="M386.13,240.31c-2.53,6.35-.84,14.46-.82,14.55l2.48,11.59-5.42-10.54c-2.88-5.61-3.74-10.07-3.77-13.36a117.88,117.88,0,0,0-16.37,7.09c-2.49,6.33-.83,14.41-.81,14.5l2.45,11.51-5.38-10.47a32.29,32.29,0,0,1-3.64-11.25,87.83,87.83,0,0,0-10.65,8c-3.58,6.48-1.61,16-1.59,16.13l2.48,11.59-5.41-10.54a34.45,34.45,0,0,1-3.31-9.16c-14,16.86-21.08,42.34-2.67,79.91,0,0-17.55-54.35,80.12-79.85,3.55-.93,8.78-2.64,11.32-5.5C435.42,252.92,431.62,230.3,386.13,240.31Z" transform="translate(-175.45 -185.66)"/><path class="cls-1" d="M200.93,251a7.81,7.81,0,0,1-.11,1,6.67,6.67,0,0,1-.37,1.39,3.9,3.9,0,0,1-.75,1.22,1.54,1.54,0,0,1-1.22.53H185.69a.31.31,0,0,0-.11.22v28.25a.27.27,0,0,0,.11.21h9.16a1.75,1.75,0,0,1,1.39.64,3.85,3.85,0,0,1,.75,1.39,5.52,5.52,0,0,1,.32,1.92,6.79,6.79,0,0,1-.11,1,7.43,7.43,0,0,1-.37,1.33,4.06,4.06,0,0,1-.75,1.23,1.6,1.6,0,0,1-1.23.53h-9.16a.27.27,0,0,0-.11.21v37.85a2.07,2.07,0,0,1-.59,1.6,3.3,3.3,0,0,1-1.44.74,6.85,6.85,0,0,1-1.76.22h-2.56a6.46,6.46,0,0,1-1.65-.22,3.73,3.73,0,0,1-1.49-.74,2.11,2.11,0,0,1-.64-1.71V249.54a2.64,2.64,0,0,1,1-1.71,2.68,2.68,0,0,1,1.81-1h19.83a2.39,2.39,0,0,1,1.65.53,3.31,3.31,0,0,1,.86,1.23,5.3,5.3,0,0,1,.32,1.38c0,.47.05.8.05,1" transform="translate(-175.45 -185.66)"/><path class="cls-1" d="M222.69,331.62a3.65,3.65,0,0,1-1.48.75,5.19,5.19,0,0,1-1.64.16c-.53,0-.93,0-1.21,0H217.2a6.59,6.59,0,0,1-1.69-.22,3.65,3.65,0,0,1-1.47-.74,2.11,2.11,0,0,1-.64-1.71V249.53a2.24,2.24,0,0,1,.64-1.75,3.31,3.31,0,0,1,1.47-.8,5.14,5.14,0,0,1,1.69-.16c.56,0,1,.05,1.27.05h1.21a6.13,6.13,0,0,1,1.58.21,3.51,3.51,0,0,1,1.43.8,2.16,2.16,0,0,1,.63,1.65v80.39a2.1,2.1,0,0,1-.63,1.7" transform="translate(-175.45 -185.66)"/><path class="cls-1" d="M266.92,249.43q-2.24,14.93-4.26,29.9t-4.16,29.91q-.75,5.11-1.49,10.44t-1.39,10.45a5.54,5.54,0,0,1-1,1.44c-.54.61-1,.91-1.34.91h-6.5a12.05,12.05,0,0,1-1.12-1.39l-.48-.75c-.36-2.34-.69-4.76-1-7.24s-.66-4.91-1-7.25q-1.5-9.81-2.88-20.1t-2.88-20.31q-.85-6.39-1.76-12.95t-1.87-13.06a4.8,4.8,0,0,1,.59-1.34,5.24,5.24,0,0,1,1.12-1.33h6.08a1.63,1.63,0,0,1,.85.43c.35.28.67.57,1,.85a.73.73,0,0,0,.21.16,1.34,1.34,0,0,1,.22.16l.21.22q1.49,11.82,3,23.77t3.25,24c.21-1,.37-2,.48-3s.23-2,.37-3c.07-.57.15-1.16.21-1.76s.15-1.19.22-1.76c.07-.36.12-.69.16-1s.09-.7.16-1.12c.14-1,.28-2.1.43-3.31s.31-2.52.53-3.94q.42-3.42,1-6.93c.35-2.35.71-4.76,1.06-7.25q.54-3.3.91-6.83t.91-7.14a8.13,8.13,0,0,1,.95-1.54,2,2,0,0,1,1.5-1h6.07a5,5,0,0,1,1.07,1.23,11.89,11.89,0,0,1,.64,1.12Z" transform="translate(-175.45 -185.66)"/><path class="cls-1" d="M301,328.43c0,.21,0,.53,0,1a5.61,5.61,0,0,1-.27,1.33,3.63,3.63,0,0,1-.63,1.22,1.55,1.55,0,0,1-1.28.54H278c-.36,0-.86-.34-1.5-1a2.88,2.88,0,0,1-1-1.66V249.53c0-.49.38-1.06,1.12-1.7a3.24,3.24,0,0,1,1.76-1h19.94a2.22,2.22,0,0,1,1.54.53,2.76,2.76,0,0,1,.8,1.28,6.4,6.4,0,0,1,.27,1.39c0,.42,0,.74,0,1s0,.55,0,1a5.79,5.79,0,0,1-.27,1.39,3.63,3.63,0,0,1-.63,1.22,1.54,1.54,0,0,1-1.28.53H286q-.21,0-.21.54v27.61c0,.36.07.53.21.53h9.07a1.59,1.59,0,0,1,1.33.64,4.21,4.21,0,0,1,.69,1.39,5.52,5.52,0,0,1,.32,1.92c0,.21,0,.53-.05,1a5.34,5.34,0,0,1-.32,1.33,4.06,4.06,0,0,1-.75,1.23,1.59,1.59,0,0,1-1.22.53H286c-.14,0-.21.18-.21.53V324c0,.35.07.53.21.53h12.8a1.67,1.67,0,0,1,1.38.53,3.61,3.61,0,0,1,.64,1.23,4.6,4.6,0,0,1,.21,1.33Z" transform="translate(-175.45 -185.66)"/><path class="cls-2" d="M503.83,251.6c0,.21,0,.52-.05,1a11.24,11.24,0,0,1-.21,1.32,2.68,2.68,0,0,1-.64,1.21,1.55,1.55,0,0,1-1.21.53h-6.23c-.21,0-.32.18-.32.53v74a2.06,2.06,0,0,1-.57,1.59,3.29,3.29,0,0,1-1.41.74,6.88,6.88,0,0,1-1.67.21h-1.47l-1,.05a5.07,5.07,0,0,1-1.62-.16,3.26,3.26,0,0,1-1.46-.79,2.26,2.26,0,0,1-.63-1.74V256.24a.41.41,0,0,0-.05-.21.41.41,0,0,1-.05-.21v-.21h-6.44a1.42,1.42,0,0,1-1.27-.63,4.93,4.93,0,0,1-.63-1.38,10.05,10.05,0,0,1-.32-2,8.16,8.16,0,0,1,.42-2.48,2,2,0,0,1,2.11-1.32H501.3a2.15,2.15,0,0,1,1.58.52,3,3,0,0,1,.74,1.17,4,4,0,0,1,.21,1.26Z" transform="translate(-175.45 -185.66)"/><path class="cls-2" d="M567.34,252.76c-.1,1.13-.3,2.46-.58,4q-.42,2.75-.9,5.76c-.31,2-.58,3.85-.79,5.54q-.52,3.06-1,6.76c-.28,2.46-.57,5-.84,7.71l-.32,1.79-.69,4.38c-.25,1.58-.44,3-.58,4.17s-.33,2.45-.58,4-.48,2.87-.69,4.07v-.11q-.84,5.81-1.84,13.46t-2.06,15.58a1,1,0,0,1-.21.31.29.29,0,0,0-.11.22v.1c-.21.35-.46.74-.74,1.16a3.07,3.07,0,0,1-1,.95,12.42,12.42,0,0,1-1.74.11h-2.48a17.26,17.26,0,0,1-2.17-.11,1.85,1.85,0,0,1-1.32-.95,8.45,8.45,0,0,1-.89-2.74q-.37-1.9-.79-5.39-.64-4.42-1.38-9.87t-1.48-10.82c-.49-3.59-1-7-1.42-10.14s-.83-5.81-1.11-7.92a3.38,3.38,0,0,0-.21.85c-.21,1.19-.42,2.42-.64,3.69s-.38,2.57-.52,3.91c-.15,1.13-.3,2.39-.48,3.8s-.37,2.78-.58,4.12V301q-.31,2.22-.69,5.07t-.89,6q-.65,4.22-1.27,8.87c-.42,3.1-.81,6-1.16,8.66a5.31,5.31,0,0,1-.74,1.53,5.74,5.74,0,0,1-1.16,1.42,13.4,13.4,0,0,1-1.85.11h-2.9a12.93,12.93,0,0,1-1.8-.11q-.32-.21-.84-.63a11.49,11.49,0,0,1-1.06-.95c-.21-1.76-.44-3.54-.68-5.33s-.52-3.54-.8-5.23q-.74-5.18-1.63-11.67T518,295.41q-.94-6.86-1.9-13.62l-1.8-12.67q-.53-3.27-.95-6.49t-.79-5.86c-.25-1.76-.44-3.2-.58-4.33s-.21-1.72-.21-1.79v-1.06a3.06,3.06,0,0,0,.53-.63c.14-.14.19-.23.16-.27s.22-.33.79-.89h6.12a1.48,1.48,0,0,1,1,.42,5.63,5.63,0,0,1,.8.84c.14.36.31.53.52.53.07.78.14,1.45.22,2a12.81,12.81,0,0,0,.31,1.69,9.89,9.89,0,0,1,.27,1.63,8.86,8.86,0,0,0,.26,1.64c.14,1.76.32,3.55.53,5.38s.46,3.63.74,5.39.52,3.38.74,5.07.45,3.41.74,5.17q.74,4.76,1.37,9.5l1.26,9.51a23.1,23.1,0,0,0,.32-2.38c.07-.81.18-1.67.32-2.58s.24-1.59.32-2.43.17-1.66.31-2.43q.42-3.17,1-7.08c.35-2.6.72-5.28,1.11-8s.79-5.53,1.21-8.34.81-5.53,1.17-8.13c.14-.92.24-1.85.31-2.8s.18-1.85.32-2.69a1.35,1.35,0,0,0,.63-.64c.14-.14.34-.35.58-.63s.44-.49.58-.63h6.66c1.05.42,1.74,1.47,2.06,3.16s.54,3.38.68,5.07c.07.57.12,1.09.16,1.59s.09.94.16,1.37v-.11q1,6.24,1.9,12.46l1.69,12.57c.28,2.25.54,4.42.79,6.49s.51,4.21.79,6.39c.07-.35.12-.69.16-1s.09-.64.16-1c.14-.7.25-1.39.32-2.06s.17-1.39.31-2.16c.21-1.27.42-2.8.64-4.59s.38-3.33.53-4.6q.09-.63.21-1.26c.07-.43.14-.81.21-1.17q.52-3.37,1.1-7.44t1.11-8.6a9.65,9.65,0,0,0,.27-1.91,19.58,19.58,0,0,1,.26-2.32c.21-1.19.43-2.44.64-3.75s.43-2.48.68-3.53a11.21,11.21,0,0,1,.9-2.59c.35-.67.77-1,1.27-1H566c.56.56.83.86.79.89s0,.13.16.27a3.06,3.06,0,0,0,.53.63v1.27c0,.14-.06.77-.16,1.9" transform="translate(-175.45 -185.66)"/><path class="cls-2" d="M605.56,321c-.11.42-.23.91-.37,1.48a4.79,4.79,0,0,0-.42,1.58,8,8,0,0,1-2.27,4.22,13.1,13.1,0,0,1-3.91,2.64,20.28,20.28,0,0,1-4.43,1.38,21.52,21.52,0,0,1-3.75.42,23.29,23.29,0,0,1-4.81-.53,13.63,13.63,0,0,1-4.54-1.85,10.74,10.74,0,0,1-3.43-3.64,13.09,13.09,0,0,1-1.58-5.91,2.18,2.18,0,0,0,0-.43,1.9,1.9,0,0,1-.06-.52,2.6,2.6,0,0,1-.1-.8v-57.7c0-.35,0-.77,0-1.27a13.25,13.25,0,0,1,.16-1.37,24.32,24.32,0,0,1,.84-3.54,11.67,11.67,0,0,1,2.33-4.06,6.22,6.22,0,0,1,2.53-1.58,21.76,21.76,0,0,1,3.64-1c1.31-.24,2.57-.42,3.8-.52s2.24-.16,3-.16c.07,0,.3,0,.69,0l1.37.11c.53,0,1.09.08,1.69.15l1.64.21a9.56,9.56,0,0,1,3.8,1.27h-.21a3.89,3.89,0,0,1,1.64,1.37,13,13,0,0,1,1.42,2.49,27.68,27.68,0,0,1,1.06,2.79,8.23,8.23,0,0,1,.42,2.33v61.55a4.15,4.15,0,0,1-.16.85m-9.66-55.75a1.22,1.22,0,0,0,0-.42.69.69,0,0,1-.05-.32,2,2,0,0,1-.22-1,12,12,0,0,0-1.55-4.81c-.81-1.37-1.72-2.05-2.72-2.05a4.2,4.2,0,0,0-2.93,1,6.32,6.32,0,0,0-1.71,2.59,14.55,14.55,0,0,0-.8,3.48,33.73,33.73,0,0,0-.21,3.7v44.87c0,.77,0,1.78.1,3a20.24,20.24,0,0,0,.54,3.64,8.71,8.71,0,0,0,1.38,3.12,3.22,3.22,0,0,0,2.78,1.31,4.62,4.62,0,0,0,3.36-1.58,7.1,7.1,0,0,0,1.76-4.64,4.8,4.8,0,0,1,.06-.85,2.91,2.91,0,0,1,.16-.63,2.36,2.36,0,0,0,.1-.63Z" transform="translate(-175.45 -185.66)"/></svg>